PathFileType	4	(X/Y/Z)	C:/Users/opensim2020/Desktop/walking_exp_matlab/subject02_walking08_straight_02.trc																																																																																																																									
DataRate	CameraRate	NumFrames	NumMarkers	Units	OrigDataRate	OrigDataStartFrame	OrigNumFrames																																																																																																																					
100	100	9	41	mm	100	1630	259																																																																																																																					
Frame#	Time	LFHD			RFHD			LBHD			RBHD			C7			T10			CLAV			STRN			RBAK			LSHO			LUPA			LELB			LFRM			LWRA			LWRB			LFIN			RSHO			RUPA			RELB			RFRM			RWRA			RWRB			RFIN			LASI			RASI			LPSI			RPSI			LTHI			LKNE			LTIB			LANK			LHEE			LTOE			RTHI			RKNE			RTIB			RANK			RHEE			RTOE			*39			*40		
		X1	Y1	Z1	X2	Y2	Z2	X3	Y3	Z3	X4	Y4	Z4	X5	Y5	Z5	X6	Y6	Z6	X7	Y7	Z7	X8	Y8	Z8	X9	Y9	Z9	X10	Y10	Z10	X11	Y11	Z11	X12	Y12	Z12	X13	Y13	Z13	X14	Y14	Z14	X15	Y15	Z15	X16	Y16	Z16	X17	Y17	Z17	X18	Y18	Z18	X19	Y19	Z19	X20	Y20	Z20	X21	Y21	Z21	X22	Y22	Z22	X23	Y23	Z23	X24	Y24	Z24	X25	Y25	Z25	X26	Y26	Z26	X27	Y27	Z27	X28	Y28	Z28	X29	Y29	Z29	X30	Y30	Z30	X31	Y31	Z31	X32	Y32	Z32	X33	Y33	Z33	X34	Y34	Z34	X35	Y35	Z35	X36	Y36	Z36	X37	Y37	Z37	X38	Y38	Z38	X39	Y39	Z39	X40	Y40	Z40	X41	Y41	Z41
																																																																																																																												
162	1.61	346.28159	1728.43677	-1564.84753	348.56503	1717.23206	-1421.24866	215.88193	1653.08765	-1566.51807	205.76041	1641.67224	-1423.44958	159.64606	1518.59875	-1480.86023	112.78748	1238.03723	-1468.37195	296.70093	1449.04956	-1497.08325	353.80191	1280.79248	-1480.89575	109.59084	1344.39368	-1405.30432	219.00005	1481.08313	-1664.28345	209.7115	1278.84326	-1744.87207	217.02669	1138.95239	-1759.01147	241.71252	1009.03918	-1772.67444	313.30505	891.78467	-1744.68286	265.99606	888.83618	-1775.95764	293.69727	828.62762	-1782.2179	250.54794	1494.45752	-1299.04871	245.51877	1302.75818	-1209.2699	275.08679	1158.06689	-1192.85815	323.61127	1047.62512	-1177.177	391.35828	930.84564	-1201.73486	348.96768	920.11218	-1164.65015	395.47745	862.85754	-1168.30872	369.59305	994.69556	-1602.24622	352.1825	966.28796	-1349.0813	153.1684	1025.74133	-1535.63562	141.10158	1020.1178	-1420.40027	349.77176	682.7663	-1657.28564	343.14343	479.05695	-1622.92908	303.68893	286.79797	-1620.41602	320.42828	67.79465	-1576.92566	286.00748	40.23357	-1524.74902	477.74374	32.44067	-1585.20776	238.6732	664.11029	-1267.14221	222.8311	462.7894	-1268.59631	76.04519	351.13898	-1270.03967	-60.38945	218.46056	-1309.49829	-109.23692	205.27231	-1375.28723	-17.38927	59.75566	-1292.78601	245.91504	1799.00269	-1477.0155	-2845.25	1034.18372	3360.41602
163	1.62	354.5231	1729.65723	-1566.83008	356.82516	1718.36938	-1423.16968	224.07738	1654.32471	-1568.46863	213.7529	1642.83838	-1425.401	168.05031	1519.8009	-1482.99854	121.03731	1239.22974	-1471.51941	305.03162	1450.16687	-1498.92883	362.04489	1281.80518	-1482.80115	117.73904	1345.26135	-1407.9884	227.97832	1482.52673	-1666.38745	218.94832	1280.34363	-1747.53296	226.74391	1140.56201	-1762.224	251.71289	1010.96759	-1776.39404	323.77863	893.71307	-1748.57458	276.49432	890.67877	-1779.82129	304.40295	830.71796	-1786.4751	258.24243	1495.19629	-1300.99976	252.50174	1303.27332	-1211.03894	280.83716	1158.57959	-1194.95386	329.05426	1047.85693	-1178.98853	396.2139	930.81482	-1203.37012	353.74362	920.28796	-1166.51331	399.74341	862.63477	-1170.20398	377.8848	994.08826	-1603.66272	359.11465	967.36359	-1350.08569	161.12006	1027.12756	-1538.76428	148.07953	1021.39728	-1423.82947	353.74005	682.58759	-1658.48413	345.64032	478.88641	-1623.96838	305.14746	286.87018	-1621.16345	320.57468	67.57969	-1576.78625	286.0173	39.65601	-1524.85156	477.72794	32.39555	-1585.15796	251.92551	665.00189	-1267.69775	239.66812	463.84781	-1268.86133	92.08574	353.86353	-1271.70251	-45.59128	222.68681	-1312.95825	-93.31018	207.81287	-1379.70557	-2.94988	64.92229	-1290.49792	254.22362	1800.21106	-1478.91223	-2845.32397	1034.00867	3360.36646
164	1.63	362.75504	1730.82068	-1568.60474	365.03738	1719.51184	-1424.94226	232.32181	1655.52283	-1570.31543	221.98125	1643.86877	-1427.27319	176.35637	1520.99634	-1485.25989	129.22488	1240.37793	-1474.67285	313.37146	1451.22339	-1500.77075	370.14755	1282.69983	-1484.64282	125.62244	1346.25342	-1411.16296	237.07529	1483.89478	-1668.47253	228.46524	1281.64368	-1750.0415	236.51675	1142.13196	-1765.44885	261.89102	1012.68335	-1779.99292	334.18686	895.45184	-1752.27087	286.91785	892.44916	-1783.56812	315.31427	832.53784	-1790.36841	265.85101	1495.79907	-1302.79358	258.69614	1303.78357	-1213.23486	286.52737	1158.95142	-1196.83752	334.11212	1047.89001	-1180.8064	401.18744	930.73468	-1204.89648	358.58044	920.54962	-1168.33069	404.18326	862.48425	-1171.93591	386.01819	993.5191	-1605.05591	365.45734	968.20154	-1350.92188	168.88741	1028.42957	-1541.70093	154.96281	1022.48254	-1427.30505	357.86609	682.3949	-1659.56018	347.88461	478.80774	-1624.88721	306.18915	287.06683	-1621.64368	320.57516	67.6026	-1576.75122	285.97861	39.70047	-1524.84656	477.70044	32.32951	-1585.14868	264.98386	666.09882	-1268.12	256.10034	465.2894	-1269.1825	107.94049	356.33899	-1273.91089	-30.08242	225.77953	-1316.47815	-76.52352	208.97575	-1384.02478	13.07942	69.57651	-1288.04529	262.43396	1801.41504	-1480.78979	-2845.8938	1033.97961	3357.47852
165	1.64	371.02872	1731.94055	-1570.15735	373.19666	1720.55188	-1426.51831	240.65994	1656.65405	-1572.03015	230.1694	1644.87708	-1428.9895	184.68954	1522.09265	-1487.38892	137.28838	1241.54126	-1477.76062	321.62695	1452.14673	-1502.54956	378.10895	1283.39307	-1486.37488	133.6064	1347.15283	-1413.94763	246.24927	1485.23413	-1670.52063	238.00916	1283.00696	-1752.70483	246.35257	1143.63135	-1768.55359	272.22076	1014.15869	-1783.18835	344.5112	897.28064	-1755.86755	297.42056	894.26794	-1787.27856	325.82059	834.67377	-1794.50745	273.42212	1496.17627	-1304.45227	265.13953	1304.34497	-1215.2002	292.58286	1159.4906	-1198.52393	339.72293	1048.3634	-1182.45825	406.39871	931.03381	-1206.46582	363.45755	920.60712	-1169.97791	408.68921	862.37988	-1173.53735	393.9158	992.94189	-1606.38599	372.25424	969.03479	-1351.86011	176.44115	1029.60291	-1544.38867	161.84149	1023.58221	-1430.36548	362.50259	682.38153	-1660.54822	349.98181	478.73737	-1625.79236	306.62637	287.3667	-1622.02734	320.56039	67.62769	-1576.69043	285.48611	40.22281	-1524.9707	477.70886	32.26228	-1585.16577	277.8848	667.26813	-1268.55127	272.33267	467.02405	-1269.58765	123.77525	358.55875	-1276.38013	-13.8785	228.00766	-1319.94336	-59.0729	208.76622	-1387.99512	30.40558	73.70632	-1285.51355	270.60461	1802.47681	-1482.32642	-2845.11914	1034.16309	3360.21655
166	1.65	379.31177	1733.03345	-1571.47449	381.27594	1721.36572	-1427.81262	248.8744	1657.76514	-1573.68787	238.26617	1645.72852	-1430.63879	192.95691	1523.13525	-1489.54663	145.3398	1242.66113	-1480.86011	329.78436	1452.94409	-1504.21704	385.96631	1284.02686	-1488.10962	141.06458	1348.00452	-1417.01599	255.47786	1486.5625	-1672.55872	247.42336	1284.57263	-1755.62756	256.23114	1145.12292	-1771.63232	282.22867	1015.78864	-1786.70654	354.89035	899.04071	-1759.38171	307.86777	895.54877	-1790.552	336.44873	836.52325	-1798.26465	280.79031	1496.72595	-1306.45996	271.32297	1304.79285	-1217.19116	297.53705	1159.83228	-1200.32458	344.81693	1048.54553	-1184.0835	411.33224	931.0271	-1207.85645	368.37747	920.83618	-1171.55835	413.75095	862.68329	-1174.97046	401.65524	992.47333	-1607.78235	379.09915	970.02374	-1352.89063	183.85699	1030.6991	-1546.8219	168.69518	1024.63293	-1433.09094	367.20346	682.05347	-1661.69067	351.78989	478.58533	-1626.59436	306.90329	287.54639	-1622.15771	320.42731	67.82278	-1576.74878	285.53757	40.3201	-1524.88232	477.72745	32.19992	-1585.21997	290.74063	668.86139	-1268.96094	288.00662	468.82074	-1270.27808	139.49553	360.60779	-1278.72693	2.93672	229.16414	-1323.23499	-41.44762	207.87248	-1391.92236	48.60706	77.2326	-1283.02234	278.7482	1803.43542	-1483.69312	-2845.81689	1034.20984	3357.39136
167	1.66	387.63559	1733.901	-1572.58691	389.28497	1722.09949	-1428.90369	257.29099	1658.81433	-1575.16992	246.32201	1646.52478	-1432.23035	201.01535	1524.1261	-1491.63086	153.15837	1243.76208	-1484.00293	337.57779	1453.54712	-1505.87134	393.67615	1284.57251	-1489.74097	148.22287	1349.11902	-1420.60254	264.77063	1487.78418	-1674.52393	257.38724	1285.71667	-1758.08948	266.18829	1146.60938	-1774.63928	292.50366	1017.44202	-1789.91943	365.32861	900.55444	-1762.43701	318.19394	897.26855	-1794.047	347.32794	838.16052	-1801.57166	288.40125	1497.17761	-1308.14465	276.83954	1305.15576	-1219.32922	303.20926	1160.28625	-1201.9104	350.22198	1048.84387	-1185.39343	416.36749	931.34839	-1209.27283	373.19012	921.08282	-1173.11487	418.45367	862.96625	-1176.34082	409.0687	992.21515	-1609.19031	385.97525	971.04883	-1353.93066	191.04826	1031.66138	-1548.99475	175.58418	1025.67786	-1435.51294	371.7438	681.70923	-1662.68103	353.73544	478.45874	-1627.3761	307.37732	287.70386	-1622.1709	320.4603	67.83958	-1576.65552	285.46945	40.29395	-1524.82214	477.75195	32.13201	-1585.27222	303.21051	670.33429	-1269.35486	303.38065	470.54019	-1271.15332	155.28491	362.10422	-1281.16748	20.32263	229.20676	-1326.21753	-22.98197	205.53192	-1395.17773	67.76719	80.03489	-1280.88159	286.94278	1804.3396	-1484.91809	-2845.24805	1033.97266	3360.33496
168	1.67	396.08328	1734.94055	-1573.44568	397.38364	1722.46509	-1429.58362	265.59189	1659.90222	-1576.73157	254.28136	1647.20178	-1433.78406	209.04399	1525.06592	-1493.79309	160.82945	1244.8186	-1486.99756	345.97452	1454.39807	-1507.52271	401.35059	1285.10522	-1491.31921	156.50322	1349.67249	-1422.52637	273.94388	1489.00488	-1676.44177	267.00348	1287.18958	-1760.8573	276.22424	1148.02075	-1777.573	302.91135	1018.73444	-1792.78357	375.534	902.3736	-1765.76563	328.73456	898.91028	-1797.47034	357.79617	840.0575	-1805.20471	295.49731	1497.64014	-1310.06689	283.32333	1306.00659	-1220.74622	308.16602	1160.67542	-1203.52161	355.06378	1049.10901	-1187.02271	421.41922	931.69025	-1210.49536	377.9805	921.3692	-1174.57678	423.66824	863.54022	-1177.43628	416.30469	992.20154	-1610.76465	392.61838	972.02448	-1354.80249	198.13295	1032.43152	-1550.90149	182.56371	1026.66064	-1437.39307	376.3129	681.3504	-1663.6543	355.76334	478.32257	-1628.04797	307.90201	287.88498	-1622.46411	320.49176	67.86022	-1576.56165	285.4946	40.52301	-1524.85291	477.77951	32.0639	-1585.31494	315.40714	671.92468	-1269.83044	318.33206	472.42099	-1272.0719	171.27759	363.06479	-1283.57532	38.24783	228.25768	-1328.92212	-4.12673	202.41321	-1397.99243	87.61681	81.66437	-1279.03857	295.13562	1805.10291	-1485.86743	-2845.13403	1033.97302	3360.12671
169	1.68	404.59729	1735.80981	-1574.11938	405.26703	1722.97278	-1430.41772	274.08255	1660.86609	-1578.02148	262.17932	1647.78259	-1435.16455	217.15204	1525.93909	-1495.93005	168.56693	1245.74963	-1489.828	353.90775	1455.0249	-1509.11523	408.88156	1285.55579	-1492.90271	163.2282	1350.66357	-1426.05359	283.14536	1490.17578	-1678.33496	276.88193	1288.47571	-1763.37659	286.37793	1149.45178	-1780.48364	313.14932	1020.35614	-1796.17432	385.86014	903.88483	-1768.72192	339.09985	900.39288	-1800.59045	368.4328	841.61816	-1808.37671	302.92746	1498.01807	-1311.66577	289.48917	1306.64294	-1222.52771	313.758	1161.20435	-1204.93604	359.69614	1049.51636	-1188.54333	426.08481	931.97284	-1211.67566	382.73874	921.74658	-1175.92566	428.60101	864.11572	-1178.42358	423.25256	992.34918	-1612.3667	399.52451	973.23309	-1356.0896	205.0827	1033.02441	-1552.51648	189.61655	1027.50793	-1439.04431	380.61563	680.94733	-1664.49023	357.99139	478.1145	-1628.61926	309.03326	287.99823	-1622.81812	320.64188	67.89316	-1576.47131	285.15173	40.96839	-1524.92554	477.8226	32.00044	-1585.3728	327.38916	673.49731	-1270.39368	332.89792	474.38348	-1273.12024	187.40538	363.39804	-1286.04199	56.64167	226.44223	-1331.33289	15.13643	198.53944	-1400.60596	108.63154	82.6147	-1277.67358	303.34912	1805.69592	-1486.66333	-2845.22119	1034.00635	3360.4209
170	1.69	413.15735	1736.5354	-1574.47937	413.1868	1723.17212	-1430.87085	282.46304	1661.88574	-1579.37732	270.03079	1648.22729	-1436.53247	225.15298	1526.76086	-1498.06494	176.0849	1246.64587	-1492.5614	361.82922	1455.60938	-1510.67273	416.35648	1286.00037	-1494.42737	171.35495	1351.22571	-1427.81128	292.19223	1491.41479	-1680.20703	286.76031	1289.84924	-1765.99011	296.57532	1150.82556	-1783.25317	323.7326	1021.71222	-1798.85791	396.16046	905.30426	-1771.47522	349.66443	901.64441	-1803.50623	379.09756	843.1488	-1811.49841	309.90207	1498.43762	-1313.5885	295.6142	1307.18079	-1224.18811	318.62439	1161.67493	-1206.49097	364.54425	1049.80957	-1189.77258	431.33075	932.65509	-1212.70374	387.39026	922.10309	-1177.20007	433.40851	864.8009	-1179.27649	430.13031	992.76593	-1614.10608	406.54752	974.50037	-1357.5697	211.89337	1033.41931	-1553.87329	196.79695	1028.20557	-1440.34436	384.65344	680.63922	-1665.20508	360.2558	477.9621	-1629.13916	310.67166	288.00797	-1623.14453	320.7785	67.95959	-1576.39172	284.98236	41.1462	-1525.11902	477.8634	31.93942	-1585.42468	338.96957	674.91162	-1271.05957	347.86871	476.17249	-1274.34277	203.71786	363.16879	-1288.23547	75.59747	223.67535	-1333.42188	34.66927	193.88039	-1402.79272	130.86685	83.06487	-1276.68616	311.68481	1806.28943	-1487.2699	-2845.15137	1034.0564	3360.26392
